<svg version="1.1" id="Layer_1" xmlns="http://www.w3.org/2000/svg" xmlns:xlink="http://www.w3.org/1999/xlink" x="0px" y="0px"
	 width="100%" viewBox="0 0 500 500" enable-background="new 0 0 500 500" xml:space="preserve">
<path fill="#FEFEFE" opacity="1.000000" stroke="none" 
	d="
M266.000000,501.000000 
	C177.333359,501.000000 89.166710,501.000000 1.000047,501.000000 
	C1.000031,334.333405 1.000031,167.666794 1.000016,1.000137 
	C167.666565,1.000091 334.333130,1.000091 500.999756,1.000046 
	C500.999847,167.666519 500.999847,334.333038 500.999939,500.999786 
	C422.833344,501.000000 344.666656,501.000000 266.000000,501.000000 
M233.474915,424.839142 
	C236.931915,424.839142 240.388931,424.839142 244.328827,424.839142 
	C244.328827,373.440369 244.328827,322.533295 244.328827,271.428162 
	C252.731979,271.428162 260.632721,271.428162 268.975342,271.428162 
	C268.975342,322.593811 268.975342,373.504333 268.975342,424.475037 
	C311.125305,424.475037 352.831238,424.475037 394.547668,424.475037 
	C394.547668,400.854065 394.547668,377.598267 394.547668,353.926636 
	C385.700378,353.926636 377.111115,353.926636 368.378235,353.926636 
	C368.378235,335.432068 368.378235,317.355804 368.378235,298.802185 
	C377.181946,298.802185 385.760406,298.802185 394.796204,298.802185 
	C394.796204,289.409607 394.796204,280.484314 394.796204,271.197571 
	C400.701752,271.985657 399.232117,267.286560 399.831635,264.763855 
	C411.207123,216.896042 422.393433,168.983246 433.605133,121.076538 
	C436.432373,108.995758 439.211212,96.903633 442.088043,84.489868 
	C421.872559,84.489868 402.212830,84.415329 382.557373,84.668892 
	C381.335114,84.684662 379.424194,87.105240 379.046753,88.695007 
	C368.371796,133.655273 357.809723,178.642624 347.399719,223.664963 
	C346.653137,226.893829 345.556915,227.934952 342.225586,227.908386 
	C322.227386,227.749023 302.227295,227.836227 282.227844,227.812698 
	C280.973541,227.811218 279.719543,227.571396 278.049500,227.399704 
	C278.049500,179.635010 278.049500,132.229553 278.049500,84.806847 
	C257.164124,84.806847 236.739853,84.806847 215.946625,84.806847 
	C215.946625,126.894173 215.946625,168.664688 215.946625,210.528503 
	C211.842300,210.528503 208.116470,210.528503 204.027481,210.528503 
	C204.027481,168.462143 204.027481,126.694702 204.027481,84.709198 
	C183.225189,84.709198 162.792236,84.709198 141.809601,84.709198 
	C141.809601,126.801765 141.809601,168.685379 141.809601,210.464050 
	C137.529282,210.464050 133.806595,210.464050 129.693420,210.464050 
	C129.693420,168.353348 129.693420,126.606758 129.693420,84.804321 
	C108.883141,84.804321 88.476334,84.804321 68.033257,84.804321 
	C68.033257,147.032761 68.033257,208.945175 68.033257,271.314941 
	C95.841286,271.314941 123.374870,271.314941 151.573166,271.314941 
	C131.811523,322.756042 112.288338,373.576447 92.595230,424.839142 
	C113.860077,424.839142 134.189362,424.723816 154.515213,424.936310 
	C158.588928,424.978882 160.621429,423.946167 162.007324,419.890717 
	C165.449783,409.817383 169.487381,399.947388 173.285950,389.995728 
	C173.594986,390.069153 173.904007,390.142609 174.213043,390.216064 
	C174.213043,401.650848 174.213043,413.085632 174.213043,424.839142 
	C193.879303,424.839142 213.179825,424.839142 233.474915,424.839142 
M350.824463,179.345459 
	C355.387756,159.605423 359.983490,139.872757 364.471497,120.115639 
	C365.008118,117.753372 365.489410,115.166122 365.087280,112.840332 
	C363.476135,103.521919 361.506683,94.265457 359.647583,84.874237 
	C338.954498,84.874237 318.453003,84.874237 297.461182,84.874237 
	C308.188751,130.879913 318.804688,176.406952 329.429932,221.973831 
	C333.433807,221.973831 337.049957,221.973831 340.804749,221.973831 
	C344.094452,207.926575 347.347260,194.036850 350.824463,179.345459 
z"/>
<path fill="#020202" opacity="1.000000" stroke="none" 
	d="
M232.977631,424.839142 
	C213.179825,424.839142 193.879303,424.839142 174.213043,424.839142 
	C174.213043,413.085632 174.213043,401.650848 174.213043,390.216064 
	C173.904007,390.142609 173.594986,390.069153 173.285950,389.995728 
	C169.487381,399.947388 165.449783,409.817383 162.007324,419.890717 
	C160.621429,423.946167 158.588928,424.978882 154.515213,424.936310 
	C134.189362,424.723816 113.860077,424.839142 92.595230,424.839142 
	C112.288338,373.576447 131.811523,322.756042 151.573166,271.314941 
	C123.374870,271.314941 95.841286,271.314941 68.033257,271.314941 
	C68.033257,208.945175 68.033257,147.032761 68.033257,84.804321 
	C88.476334,84.804321 108.883141,84.804321 129.693420,84.804321 
	C129.693420,126.606758 129.693420,168.353348 129.693420,210.464050 
	C133.806595,210.464050 137.529282,210.464050 141.809601,210.464050 
	C141.809601,168.685379 141.809601,126.801765 141.809601,84.709198 
	C162.792236,84.709198 183.225189,84.709198 204.027481,84.709198 
	C204.027481,126.694702 204.027481,168.462143 204.027481,210.528503 
	C208.116470,210.528503 211.842300,210.528503 215.946625,210.528503 
	C215.946625,168.664688 215.946625,126.894173 215.946625,84.806847 
	C236.739853,84.806847 257.164124,84.806847 278.049500,84.806847 
	C278.049500,132.229553 278.049500,179.635010 278.049500,227.399704 
	C279.719543,227.571396 280.973541,227.811218 282.227844,227.812698 
	C302.227295,227.836227 322.227386,227.749023 342.225586,227.908386 
	C345.556915,227.934952 346.653137,226.893829 347.399719,223.664963 
	C357.809723,178.642624 368.371796,133.655273 379.046753,88.695007 
	C379.424194,87.105240 381.335114,84.684662 382.557373,84.668892 
	C402.212830,84.415329 421.872559,84.489868 442.088043,84.489868 
	C439.211212,96.903633 436.432373,108.995758 433.605133,121.076538 
	C422.393433,168.983246 411.207123,216.896042 399.831635,264.763855 
	C399.232117,267.286560 400.701752,271.985657 394.796204,271.197571 
	C394.796204,280.484314 394.796204,289.409607 394.796204,298.802185 
	C385.760406,298.802185 377.181946,298.802185 368.378235,298.802185 
	C368.378235,317.355804 368.378235,335.432068 368.378235,353.926636 
	C377.111115,353.926636 385.700378,353.926636 394.547668,353.926636 
	C394.547668,377.598267 394.547668,400.854065 394.547668,424.475037 
	C352.831238,424.475037 311.125305,424.475037 268.975342,424.475037 
	C268.975342,373.504333 268.975342,322.593811 268.975342,271.428162 
	C260.632721,271.428162 252.731979,271.428162 244.328827,271.428162 
	C244.328827,322.533295 244.328827,373.440369 244.328827,424.839142 
	C240.388931,424.839142 236.931915,424.839142 232.977631,424.839142 
M384.749542,274.827057 
	C385.322052,271.474152 383.493530,271.094910 380.693207,271.116150 
	C366.058868,271.227264 351.423218,271.167999 336.324036,271.167999 
	C338.917450,259.896515 341.399109,249.110565 343.902039,238.232285 
	C322.164154,238.232285 300.740875,238.232285 279.292908,238.232285 
	C279.292908,297.159546 279.292908,355.854309 279.292908,414.548401 
	C314.502930,414.548401 349.398468,414.548401 384.454956,414.548401 
	C384.454956,397.705444 384.454956,381.147461 384.454956,364.166016 
	C366.593262,364.166016 349.019562,364.166016 331.376709,364.166016 
	C331.376709,358.197845 331.376709,352.661011 331.376709,346.746399 
	C340.468872,346.746399 349.223328,346.746399 357.815369,346.746399 
	C357.815369,332.935730 357.815369,319.514465 357.815369,305.662811 
	C348.798920,305.662811 340.055145,305.662811 331.347534,305.662811 
	C331.347534,299.813049 331.347534,294.403870 331.347534,288.588257 
	C349.234711,288.588257 366.812866,288.588257 384.749664,288.588257 
	C384.749664,284.041321 384.749664,279.904022 384.749542,274.827057 
M234.203201,404.473907 
	C234.203201,360.197174 234.203201,315.920410 234.203201,271.662201 
	C233.310455,271.426514 232.850235,271.199097 232.389771,271.198639 
	C210.063538,271.176422 187.736755,271.248932 165.411652,271.086853 
	C162.111313,271.062927 161.740265,273.092926 160.909317,275.251648 
	C143.739578,319.856903 126.547256,364.453461 109.376999,409.058472 
	C108.696678,410.825806 108.189926,412.659973 107.482224,414.831451 
	C121.364410,414.831451 134.525818,414.641846 147.676071,414.941772 
	C151.866333,415.037354 153.659393,413.706604 155.091431,409.782898 
	C161.280136,392.826263 167.868011,376.015320 174.369461,358.997437 
	C177.747925,359.633026 180.804657,360.208099 184.173355,360.841858 
	C184.173355,378.904388 184.173355,396.668365 184.173355,414.585571 
	C200.960831,414.585571 217.366318,414.585571 234.203217,414.585571 
	C234.203217,411.388519 234.203217,408.425201 234.203201,404.473907 
z"/>
<path fill="#030303" opacity="1.000000" stroke="none" 
	d="
M350.712280,179.746292 
	C347.347260,194.036850 344.094452,207.926575 340.804749,221.973831 
	C337.049957,221.973831 333.433807,221.973831 329.429932,221.973831 
	C318.804688,176.406952 308.188751,130.879913 297.461182,84.874237 
	C318.453003,84.874237 338.954498,84.874237 359.647583,84.874237 
	C361.506683,94.265457 363.476135,103.521919 365.087280,112.840332 
	C365.489410,115.166122 365.008118,117.753372 364.471497,120.115639 
	C359.983490,139.872757 355.387756,159.605423 350.712280,179.746292 
z"/>
<path fill="#FDFDFD" opacity="1.000000" stroke="none" 
	d="
M384.749603,275.296906 
	C384.749664,279.904022 384.749664,284.041321 384.749664,288.588257 
	C366.812866,288.588257 349.234711,288.588257 331.347534,288.588257 
	C331.347534,294.403870 331.347534,299.813049 331.347534,305.662811 
	C340.055145,305.662811 348.798920,305.662811 357.815369,305.662811 
	C357.815369,319.514465 357.815369,332.935730 357.815369,346.746399 
	C349.223328,346.746399 340.468872,346.746399 331.376709,346.746399 
	C331.376709,352.661011 331.376709,358.197845 331.376709,364.166016 
	C349.019562,364.166016 366.593262,364.166016 384.454956,364.166016 
	C384.454956,381.147461 384.454956,397.705444 384.454956,414.548401 
	C349.398468,414.548401 314.502930,414.548401 279.292908,414.548401 
	C279.292908,355.854309 279.292908,297.159546 279.292908,238.232285 
	C300.740875,238.232285 322.164154,238.232285 343.902039,238.232285 
	C341.399109,249.110565 338.917450,259.896515 336.324036,271.167999 
	C351.423218,271.167999 366.058868,271.227264 380.693207,271.116150 
	C383.493530,271.094910 385.322052,271.474152 384.749603,275.296906 
z"/>
<path fill="#FEFEFE" opacity="1.000000" stroke="none" 
	d="
M234.203217,404.967896 
	C234.203217,408.425201 234.203217,411.388519 234.203217,414.585571 
	C217.366318,414.585571 200.960831,414.585571 184.173355,414.585571 
	C184.173355,396.668365 184.173355,378.904388 184.173355,360.841858 
	C180.804657,360.208099 177.747925,359.633026 174.369461,358.997437 
	C167.868011,376.015320 161.280136,392.826263 155.091431,409.782898 
	C153.659393,413.706604 151.866333,415.037354 147.676071,414.941772 
	C134.525818,414.641846 121.364410,414.831451 107.482224,414.831451 
	C108.189926,412.659973 108.696678,410.825806 109.376999,409.058472 
	C126.547256,364.453461 143.739578,319.856903 160.909317,275.251648 
	C161.740265,273.092926 162.111313,271.062927 165.411652,271.086853 
	C187.736755,271.248932 210.063538,271.176422 232.389771,271.198639 
	C232.850235,271.199097 233.310455,271.426514 234.203201,271.662201 
	C234.203201,315.920410 234.203201,360.197174 234.203217,404.967896 
z"/>
</svg>